<svg xmlns="http://www.w3.org/2000/svg" xmlns:xlink="http://www.w3.org/1999/xlink" width="129" height="134" viewBox="0 0 129 134"><defs><path id="e274a" d="M1221.99 709.27h128.04v83.74H1222zm1.99 1.99V791h124.07v-79.75z"/><path id="e274b" d="M1262.69 678.73h47.64v114.28h-47.64zm1.99 1.99v110.3h43.67v-110.3z"/><path id="e274c" d="M1222.38 708.47l62.98-48.27a.95.95 0 0 1 1.17 0l62.13 48.27c.74.58.34 1.79-.59 1.79h-125.1c-.94 0-1.34-1.22-.59-1.8zm3.5-.2h119.32l-59.25-46.03z"/><path id="e274d" d="M1262.69 733.9h47.64v17.73h-47.64z"/><path id="e274e" d="M1262.69 686.61h47.64v6.9h-47.64z"/><path id="e274f" d="M1222.99 784.14h127.05v8.87H1223z"/><path id="e274g" d="M1260.46 788.64l1.8-.85 1.33 2.82-1.8.86zm-3.4-7.18l1.8-.85 1.7 3.6-1.8.85zm-3.4-7.17l1.8-.85 1.7 3.6-1.8.84zm-3.4-7.18l1.8-.85 1.7 3.59-1.8.85zm-3.4-7.18l1.8-.85 1.7 3.6-1.8.85zm-3.4-7.17l1.8-.85 1.7 3.6-1.8.84zm-3.4-7.18l1.8-.85 1.7 3.59-1.8.85zm-3.39-7.17l1.8-.86 1.7 3.6-1.8.85zm-3.4-7.18l1.8-.85 1.7 3.6-1.8.85zm-3.4-7.18l1.8-.85 1.7 3.6-1.8.85zm-3.4-7.17l1.8-.85 1.7 3.6-1.8.84zm-3.39-7.18l1.8-.85 1.7 3.6-1.8.85z"/><path id="e274h" d="M1346.9 714.14l-1.8-.84 1.66-3.6 1.8.83zm-3.34 7.2l-1.8-.84 1.67-3.6 1.8.84zm-3.33 7.2l-1.8-.83 1.67-3.6 1.8.84zm-3.33 7.22l-1.8-.83 1.66-3.6 1.8.83zm-3.34 7.2l-1.8-.82 1.67-3.6 1.8.82zm-3.33 7.22l-1.8-.84 1.67-3.6 1.8.83zm-3.33 7.2l-1.8-.84 1.67-3.6 1.8.84zm-3.33 7.21l-1.8-.83 1.66-3.6 1.8.83zm-3.34 7.2l-1.8-.82 1.67-3.6 1.8.83zm-3.32 7.22l-1.8-.84 1.66-3.6 1.8.83zm-3.34 7.2l-1.8-.84 1.67-3.6 1.8.84zm-3.33 7.2l-1.8-.83 1.67-3.6 1.8.84z"/></defs><g><g transform="translate(-1222 -660)"><g><use fill="#004599" xlink:href="#e274a"/></g><g><use fill="#004599" xlink:href="#e274b"/></g><g><use fill="#004599" xlink:href="#e274c"/></g><g><use fill="#004599" xlink:href="#e274d"/></g><g><use fill="#004599" xlink:href="#e274e"/></g><g><use fill="#004599" xlink:href="#e274f"/></g><g><use fill="#004599" xlink:href="#e274g"/></g><g><use fill="#004599" xlink:href="#e274h"/></g></g></g></svg>