<svg xmlns="http://www.w3.org/2000/svg" xmlns:xlink="http://www.w3.org/1999/xlink" width="47" height="132" viewBox="0 0 47 132"><defs><path id="pwwea" d="M970.68 728.61v-.05l.05-.12c0-.02.03-.03.04-.04 0-.02 0-.04.02-.06l.08-.1.04-.03c.01-.01 0-.03.02-.04l.1-.08c.02-.02.04-.01.06-.02l.04-.04.13-.05h.04l.03-.03.13-.02.03.01.03-.01H975V717h-32v25h32v-12.24h-3.47a.5.5 0 0 1-.07 0l-.12-.02-.02-.02h-.06l-.13-.06c-.02 0-.02-.02-.03-.03-.02-.01-.05 0-.07-.02l-.1-.09c-.01 0 0-.03-.02-.04-.01-.01-.03 0-.03-.02l-.1-.1v-.05c-.02-.02-.04-.03-.05-.06l-.05-.12v-.05c0-.02-.02-.03-.03-.05l-.01-.14.01-.04-.01-.04.01-.14c0-.03.03-.04.03-.06z"/><path id="pwweb" d="M943 690v-25h32v25z"/><path id="pwwec" d="M976.13 768c-.03.03-.09.03-.13.06.04.02.1.02.13.05z"/><path id="pwwed" d="M943 794v-25h32v25z"/><path id="pwwee" d="M943 690v.11c.04-.03.09-.03.13-.05-.04-.02-.1-.03-.13-.06z"/><path id="pwwef" d="M943 716.11c.04-.03.09-.03.13-.06-.04-.02-.1-.02-.13-.05z"/><path id="pwweg" d="M975.74 663.8h5.1c.2 0 .38.18.38.39V793H983V662h-47v131h1.78V664.19c0-.21.17-.39.38-.39H943.27z"/><path id="pwweh" d="M979.4 733.81v.06l-.14.32-.04.04v.03l-.23.28c-.01.02-.03 0-.05.02-.02.02-.02.05-.04.06l-.3.2c-.01.02-.03.01-.05.02l-.03.03-.33.14-.09.02h-.02l-.38.05h-.1l-.37-.04-.02-.01-.09-.02-.34-.14-.03-.03-.05-.01-.3-.21c-.02-.01-.02-.04-.03-.06-.02-.01-.04 0-.05-.02l-.22-.28v-.03l-.05-.04-.05-.11V794h4V665h-4v62.95h.12l.2-.26c0-.02.03-.02.05-.03l.03-.06.3-.2c.01-.02.03-.01.05-.02l.05-.04.34-.12h.05l.03-.02.37-.05.06.01.06-.02.37.06.05.02h.04l.34.12.04.04.05.01.3.21.04.06c.01.01.04.01.05.03l.22.28.01.04.04.03.14.33v.05l.04.06.04.34-.02.04.02.04-.04.34c0 .02-.03.04-.04.06v.05l-.14.32-.04.04v.04l-.23.27c-.01.02-.03.02-.05.03l-.04.06-.3.2c-.02.01-.04 0-.05.02-.01 0-.01.02-.03.02l-.33.14-.1.02-.01.01-.38.05h-.1l-.37-.05h-.02l-.09-.03-.34-.14c-.02 0-.02-.02-.03-.02-.02-.01-.04 0-.05-.02l-.3-.2c-.02-.02-.02-.05-.04-.06 0-.02-.03-.01-.05-.03l-.2-.26H976v2.91l.05-.11c0-.02.03-.02.04-.03v-.05l.23-.27c0-.02.03-.02.05-.03.01-.02.01-.04.03-.05l.3-.2c.01-.02.03-.01.05-.02.01 0 .01-.03.03-.03l.34-.14h.06c.02 0 .03-.03.05-.03l.37-.04h.1l.38.04c.02 0 .03.02.05.03h.06l.33.14c.02 0 .02.02.03.03h.05l.3.22c.02 0 .02.03.03.05.02.01.05.01.06.03l.22.27.01.05.04.03.14.32v.06l.04.05.04.34-.02.04.02.04-.04.35c0 .02-.03.03-.03.05z"/><path id="pwwei" d="M976.14 742c-.04.03-.1.04-.14.06.04.02.1.02.14.05z"/><path id="pwwej" d="M976.13 716c-.03.03-.09.04-.13.05.04.03.1.03.13.06z"/><path id="pwwek" d="M976.13 690c-.03.03-.09.04-.13.05.04.03.1.03.13.06z"/><path id="pwwel" d="M943 742v.11c.04-.03.1-.03.14-.05-.05-.03-.1-.03-.14-.06z"/><path id="pwwem" d="M938 794V665h4v129z"/><path id="pwwen" d="M943 768.11c.04-.03.09-.04.13-.05-.04-.03-.1-.03-.13-.06z"/></defs><g><g transform="translate(-936 -662)"><g><use fill="#004599" xlink:href="#pwwea"/></g><g><use fill="#004599" xlink:href="#pwweb"/></g><g><use fill="#004599" xlink:href="#pwwec"/></g><g><use fill="#004599" xlink:href="#pwwed"/></g><g><use fill="#004599" xlink:href="#pwwee"/></g><g><use fill="#004599" xlink:href="#pwwef"/></g><g><use fill="#004599" xlink:href="#pwweg"/></g><g><use fill="#004599" xlink:href="#pwweh"/></g><g><use fill="#004599" xlink:href="#pwwei"/></g><g><use fill="#004599" xlink:href="#pwwej"/></g><g><use fill="#004599" xlink:href="#pwwek"/></g><g><use fill="#004599" xlink:href="#pwwel"/></g><g><use fill="#004599" xlink:href="#pwwem"/></g><g><use fill="#004599" xlink:href="#pwwen"/></g></g></g></svg>