<svg xmlns="http://www.w3.org/2000/svg" xmlns:xlink="http://www.w3.org/1999/xlink" width="73" height="132" viewBox="0 0 73 132"><defs><path id="24ija" d="M670 789.94V794h-73v-4.06zm0-1.42h-73v-9.4c0-.75.62-1.37 1.4-1.37h70.21c.77 0 1.39.62 1.39 1.38zm-36.5-19.64v1.47c0 .4-.32.72-.73.72a.72.72 0 0 1-.72-.72v-1.47c0-.4.32-.71.72-.71.4 0 .73.32.73.71zm0-8.63v1.46c0 .4-.32.72-.73.72a.72.72 0 0 1-.72-.72v-1.46c0-.4.32-.72.72-.72.4 0 .73.32.73.72zm0-8.63v1.46c0 .4-.32.72-.73.72a.72.72 0 0 1-.72-.72v-1.46c0-.4.32-.72.72-.72.4 0 .73.32.73.72zm0-8.64v1.46c0 .4-.32.71-.73.71a.72.72 0 0 1-.72-.71v-1.46c0-.4.32-.71.72-.71.4 0 .73.32.73.71zm0-8.63v1.46c0 .4-.32.72-.73.72a.72.72 0 0 1-.72-.72v-1.46c0-.4.32-.72.72-.72.4 0 .73.32.73.72zm0-8.64v1.47c0 .4-.32.72-.73.72a.72.72 0 0 1-.72-.72v-1.47c0-.4.32-.71.72-.71.4 0 .73.32.73.71zm0-8.63v1.46c0 .4-.32.71-.73.71a.72.72 0 0 1-.72-.71v-1.46c0-.4.32-.71.72-.71.4 0 .73.31.73.7zm0-8.63v1.46c0 .4-.32.72-.73.72a.72.72 0 0 1-.72-.72v-1.46c0-.4.32-.72.72-.72.4 0 .73.32.73.72zm0-8.64v1.47c0 .4-.32.72-.73.72a.72.72 0 0 1-.72-.72v-1.47c0-.4.32-.71.72-.71.4 0 .73.32.73.71zm0-8.63v1.47c0 .4-.32.71-.73.71a.72.72 0 0 1-.72-.71v-1.47c0-.4.32-.72.72-.72.4 0 .73.32.73.72zm-4.35 82.1v1.47c0 .4-.33.71-.73.71a.72.72 0 0 1-.72-.71v-1.47c0-.4.32-.72.72-.72.4 0 .73.32.73.72zm0-9.12v1.46c0 .4-.33.72-.73.72a.72.72 0 0 1-.72-.72v-1.46c0-.4.32-.72.72-.72.4 0 .73.32.73.72zm0-9.12v1.46c0 .4-.33.72-.73.72a.72.72 0 0 1-.72-.72v-1.46c0-.4.32-.72.72-.72.4 0 .73.32.73.72zm0-9.13v1.47c0 .4-.33.72-.73.72a.72.72 0 0 1-.72-.72v-1.47c0-.4.32-.71.72-.71.4 0 .73.32.73.71zm0-9.12v1.46c0 .4-.33.71-.73.71a.72.72 0 0 1-.72-.71v-1.46c0-.4.32-.71.72-.71.4 0 .73.31.73.71zm0-9.12v1.47c0 .4-.33.71-.73.71a.72.72 0 0 1-.72-.71v-1.47c0-.4.32-.72.72-.72.4 0 .73.32.73.72zm0-9.12V720c0 .4-.33.72-.73.72a.72.72 0 0 1-.72-.72v-1.46c0-.4.32-.72.72-.72.4 0 .73.32.73.72zm0-9.12v1.46c0 .4-.33.72-.73.72a.72.72 0 0 1-.72-.72v-1.46c0-.4.32-.72.72-.72.4 0 .73.32.73.72zm0-9.13v1.47c0 .4-.33.72-.73.72a.72.72 0 0 1-.72-.72v-1.47c0-.4.32-.71.72-.71.4 0 .73.32.73.71zm0-9.12v1.47c0 .4-.33.71-.73.71a.72.72 0 0 1-.72-.71v-1.47c0-.4.32-.72.72-.72.4 0 .73.32.73.72zm-4.35 73.3v1.47c0 .4-.33.72-.73.72a.72.72 0 0 1-.72-.72v-1.47c0-.4.32-.71.72-.71.4 0 .73.32.73.71zm0-8.14v1.47c0 .4-.33.71-.73.71a.72.72 0 0 1-.72-.71v-1.47c0-.4.32-.72.72-.72.4 0 .73.32.73.72zm0-8.15v1.47c0 .4-.33.72-.73.72a.72.72 0 0 1-.72-.72v-1.47c0-.4.32-.71.72-.71.4 0 .73.32.73.71zm0-8.14v1.46c0 .4-.33.72-.73.72a.72.72 0 0 1-.72-.72v-1.46c0-.4.32-.72.72-.72.4 0 .73.32.73.72zm0-8.14v1.46c0 .4-.33.72-.73.72a.72.72 0 0 1-.72-.72v-1.46c0-.4.32-.72.72-.72.4 0 .73.32.73.72zm0-8.15v1.47c0 .4-.33.71-.73.71a.72.72 0 0 1-.72-.71v-1.47c0-.4.32-.72.72-.72.4 0 .73.32.73.72zm0-8.14v1.46c0 .4-.33.72-.73.72a.72.72 0 0 1-.72-.72v-1.46c0-.4.32-.72.72-.72.4 0 .73.32.73.72zm0-8.15v1.47c0 .4-.33.71-.73.71a.72.72 0 0 1-.72-.71v-1.47c0-.4.32-.72.72-.72.4 0 .73.32.73.72zm0-8.14v1.46c0 .4-.33.72-.73.72a.72.72 0 0 1-.72-.72v-1.46c0-.4.32-.72.72-.72.4 0 .73.32.73.72zm0-8.15v1.47c0 .4-.33.71-.73.71a.72.72 0 0 1-.72-.71v-1.47c0-.4.32-.72.72-.72.4 0 .73.32.73.72zm20.3 42.52v17.59c0 .4-.32.72-.72.72a.72.72 0 0 1-.73-.72v-17.6c0-.39.33-.7.73-.7.4 0 .72.31.72.7zm-10.15-48.76v2.86H621.9v-2.86h5.8v-5.74h-7.25v55.96c0 .4-.33.72-.73.72a.72.72 0 0 1-.72-.72v-57.4h10.15v7.18zm-23.2 91.38V667.85h1.45v108.47zm-13.06 0V667.85h1.45v108.47zm50.76 0V667.85h1.45v108.47zm17.4 0V667.85h1.46v108.47zm-4.34-47.02v7.34c0 .4-.33.72-.73.72a.72.72 0 0 1-.72-.72v-7.34a.72.72 0 1 1 1.45 0zm0-55.71v51.31c0 .4-.33.72-.73.72a.72.72 0 0 1-.72-.72v-51.31c0-.4.32-.72.72-.72.4 0 .73.32.73.72zm-5.3 44.15c0 1.08-.9 1.97-2 1.97s-2-.89-2-1.97c0-1.09.9-1.97 2-1.97s2 .88 2 1.97zm-10.16 0c0 1.08-.89 1.97-2 1.97-1.1 0-1.99-.89-1.99-1.97 0-1.09.9-1.97 2-1.97s2 .88 2 1.97zm-49.8-54.66c0-.6.48-1.08 1.08-1.08h70.34c.6 0 1.09.48 1.09 1.08v3.22h-72.52z"/></defs><g><g transform="translate(-597 -662)"><g><use fill="#004599" xlink:href="#24ija"/></g></g></g></svg>