<svg xmlns="http://www.w3.org/2000/svg" xmlns:xlink="http://www.w3.org/1999/xlink" width="18" height="18" viewBox="0 0 18 18"><defs><path id="4b63a" d="M1318.35 386.44v-1.3h1.3v1.3zm.07-2.29v-.34c0-.44.06-.83.18-1.16.1-.24.24-.49.45-.74.15-.18.43-.44.82-.8.4-.34.65-.62.77-.82.12-.21.18-.44.18-.68 0-.44-.17-.83-.52-1.17-.35-.34-.77-.5-1.27-.5-.49 0-.9.15-1.22.45-.32.3-.54.78-.64 1.43l-1.17-.14c.1-.87.42-1.53.94-1.99a3.01 3.01 0 0 1 2.07-.69c.9 0 1.63.25 2.17.74a2.34 2.34 0 0 1 .52 2.91c-.19.35-.56.76-1.11 1.25-.37.33-.61.57-.73.73-.11.15-.2.33-.25.54-.06.2-.09.53-.1.98zm.58 6.85a9 9 0 1 1 0-18 9 9 0 0 1 0 18zm0-1a8 8 0 1 0 0-16 8 8 0 0 0 0 16z"/></defs><g><g transform="translate(-1310 -373)"><use fill="#9b9a9b" xlink:href="#4b63a"/></g></g></svg>