<svg xmlns="http://www.w3.org/2000/svg" xmlns:xlink="http://www.w3.org/1999/xlink" width="14" height="16" viewBox="0 0 14 16"><defs><path id="yik5a" d="M1326.5 568.31V559h-11v9.31c0 .04.02.09.06.13.04.04.09.06.13.06h10.62c.04 0 .09-.02.13-.06.04-.04.06-.09.06-.13zm1.5-10.81v11c0 .42-.15.77-.44 1.06-.29.3-.64.44-1.06.44h-11c-.42 0-.77-.15-1.06-.44-.3-.29-.44-.64-.44-1.06v-11c0-.42.15-.77.44-1.06.29-.3.64-.44 1.06-.44h1.5v-1.63c0-.1.04-.19.1-.26.08-.07.17-.11.28-.11h1.24c.1 0 .2.04.27.1.07.08.11.17.11.27V556h4v-1.63c0-.1.04-.19.1-.26.08-.07.17-.11.28-.11h1.24c.1 0 .2.04.27.1.07.08.11.17.11.27V556h1.5c.42 0 .77.15 1.06.44.3.29.44.64.44 1.06zm-3 6.88v1.25c0 .1-.04.19-.1.26a.36.36 0 0 1-.27.11h-1.26c-.1 0-.19-.04-.26-.1a.36.36 0 0 1-.11-.27v-1.25c0-.1.04-.2.1-.27.08-.07.17-.11.28-.11h1.24c.1 0 .2.04.27.1.07.08.11.17.11.27zm-6 0v1.25c0 .1-.04.19-.1.26a.36.36 0 0 1-.27.11h-1.26c-.1 0-.19-.04-.26-.1a.36.36 0 0 1-.11-.27v-1.25c0-.1.04-.2.1-.27.08-.07.17-.11.28-.11h1.24c.1 0 .2.04.27.1.07.08.11.17.11.27zm3 0v1.25c0 .1-.04.19-.1.26a.36.36 0 0 1-.27.11h-1.26c-.1 0-.19-.04-.26-.1a.36.36 0 0 1-.11-.27v-1.25c0-.1.04-.2.1-.27.08-.07.17-.11.28-.11h1.24c.1 0 .2.04.27.1.07.08.11.17.11.27zm3-3v1.25c0 .1-.04.19-.1.26a.36.36 0 0 1-.27.11h-1.26c-.1 0-.19-.04-.26-.1a.36.36 0 0 1-.11-.27v-1.25c0-.1.04-.2.1-.27.08-.07.17-.11.28-.11h1.24c.1 0 .2.04.27.1.07.08.11.17.11.27zm-3 0v1.25c0 .1-.04.19-.1.26a.36.36 0 0 1-.27.11h-1.26c-.1 0-.19-.04-.26-.1a.36.36 0 0 1-.11-.27v-1.25c0-.1.04-.2.1-.27.08-.07.17-.11.28-.11h1.24c.1 0 .2.04.27.1.07.08.11.17.11.27zm-3.38 1.62h-1.24c-.1 0-.2-.04-.27-.1a.36.36 0 0 1-.11-.27v-1.25c0-.1.04-.2.1-.27.08-.07.17-.11.28-.11h1.24c.1 0 .2.04.27.1.07.08.11.17.11.27v1.25c0 .1-.04.2-.1.27a.36.36 0 0 1-.27.11z"/></defs><g><g transform="translate(-1314 -554)"><use fill="#9b9a9b" xlink:href="#yik5a"/></g></g></svg>