<svg width="174px" height="42px" viewBox="0 0 1740 420" version="1.1" xmlns="http://www.w3.org/2000/svg" preserveAspectRatio="none">
<g id="#959595ff">
<path fill="#959595" opacity="1.00" d=" M 865.68 0.00 L 865.86 0.00 C 867.23 1.36 868.34 3.00 869.86 4.22 C 871.63 3.39 872.65 1.33 874.11 0.00 L 874.19 0.00 C 1160.75 66.55 1447.35 132.95 1733.92 199.43 C 1735.92 199.74 1737.92 200.83 1740.00 200.36 L 1740.00 201.67 C 1739.79 201.67 1739.38 201.66 1739.18 201.66 C 1736.83 204.52 1734.32 207.25 1731.82 209.96 C 1444.54 143.39 1157.30 76.68 870.01 10.13 C 582.73 76.67 295.48 143.37 8.21 209.97 C 5.62 207.25 3.12 204.44 0.72 201.55 C 0.54 201.57 0.18 201.62 0.00 201.64 L 0.00 200.39 C 1.67 200.92 3.39 199.92 5.04 199.68 C 291.91 133.09 578.83 66.69 865.68 0.00 Z" />
</g>
<g id="#002365ff">
<path fill="#002365" opacity="1.00" d=" M 6.10 409.43 C 292.68 342.99 579.24 276.46 865.83 210.06 C 867.42 211.30 868.37 213.19 869.99 214.40 C 871.58 213.15 872.62 211.34 874.17 210.05 C 1160.75 276.48 1447.32 342.98 1733.90 409.43 C 1735.90 409.83 1737.86 410.71 1740.00 410.36 L 1740.00 411.82 C 1736.65 413.83 1734.56 417.28 1731.84 420.00 L 1731.64 420.00 C 1557.82 379.53 1383.95 339.34 1210.11 298.98 C 1096.73 272.72 983.37 246.32 869.96 220.14 C 691.97 261.34 514.01 302.68 336.03 343.94 C 226.84 369.32 117.59 394.49 8.43 420.00 L 8.20 420.00 C 5.65 417.25 3.18 414.45 0.73 411.62 C 0.55 411.64 0.18 411.69 0.00 411.71 L 0.00 410.39 C 2.08 410.71 4.09 409.81 6.10 409.43 Z" />
</g>
</svg>