<svg width="235px" height="235px" viewBox="0 0 1175 1175" version="1.1" xmlns="http://www.w3.org/2000/svg">
<g id="#b0b0b0ff">
<path fill="#b0b0b0" opacity="1.00" d=" M 579.18 0.00 L 597.65 0.00 C 678.78 1.55 759.57 19.87 833.28 53.85 C 891.53 80.61 945.35 116.99 991.83 161.14 C 1060.24 226.02 1112.77 307.58 1143.32 396.79 C 1162.90 453.58 1173.40 513.40 1175.00 573.42 L 1175.00 597.85 C 1173.43 686.66 1151.54 775.08 1111.17 854.22 C 1081.12 913.33 1040.86 967.20 992.85 1012.92 C 917.28 1085.23 821.98 1136.63 720.01 1159.95 C 681.80 1168.90 642.67 1173.58 603.47 1175.00 L 573.45 1175.00 C 483.63 1172.77 394.34 1149.89 314.83 1107.98 C 270.86 1084.90 229.81 1056.25 192.99 1022.93 C 146.52 980.99 106.96 931.40 76.15 876.91 C 28.09 792.10 1.81 695.21 0.00 597.77 L 0.00 576.36 C 1.58 497.42 19.12 418.83 51.60 346.84 C 53.55 342.72 55.21 338.43 57.49 334.48 C 60.90 329.02 69.12 327.75 74.09 331.80 C 78.70 335.17 79.84 341.94 77.06 346.84 C 44.39 415.90 25.97 491.66 23.41 568.02 C 20.46 652.78 36.99 738.13 71.28 815.70 C 97.73 875.78 134.87 931.07 180.27 978.46 C 232.65 926.34 284.79 873.99 337.07 821.77 C 341.31 817.52 345.55 813.26 349.80 809.03 C 385.37 773.50 420.89 737.93 456.46 702.40 C 460.67 698.16 464.91 693.94 469.07 689.64 C 499.61 659.41 529.86 628.89 560.29 598.56 C 564.51 594.32 568.74 590.08 572.92 585.81 C 621.72 537.27 670.28 488.50 718.98 439.86 C 723.26 435.55 727.57 431.25 731.87 426.96 C 762.25 396.60 792.62 366.24 822.97 335.85 C 827.21 331.60 831.47 327.36 835.72 323.11 C 883.31 275.51 930.95 227.98 978.46 180.31 C 923.89 127.90 858.66 86.65 787.89 59.88 C 706.43 28.93 617.76 17.12 531.05 25.90 C 467.09 32.29 404.28 49.83 346.20 77.36 C 341.18 80.16 334.26 78.72 331.04 73.87 C 327.09 68.53 329.03 60.01 335.06 57.09 C 411.03 20.71 494.96 1.18 579.18 0.00 M 858.03 333.56 C 854.88 336.56 851.87 339.71 848.76 342.75 C 847.62 343.92 846.26 344.99 845.78 346.61 L 845.17 346.35 C 814.85 376.68 784.53 407.03 754.18 437.33 L 754.66 437.56 C 749.72 441.01 745.93 445.88 741.59 450.04 L 742.22 450.70 L 741.23 450.27 C 697.45 494.10 653.65 537.91 609.81 581.68 C 609.18 581.80 608.69 582.11 608.36 582.63 L 607.94 582.67 C 606.90 585.21 604.58 586.82 602.77 588.77 C 589.30 602.31 575.70 615.72 562.30 629.33 C 538.61 652.82 515.08 676.46 491.51 700.06 L 492.24 700.40 L 491.15 700.61 C 486.78 704.43 482.89 708.78 478.75 712.85 C 443.14 748.28 407.72 783.89 372.15 819.36 L 372.68 819.61 C 367.71 823.05 363.75 827.86 359.61 832.24 L 359.39 832.14 C 305.18 886.27 251.12 940.55 196.83 994.60 C 198.20 996.41 199.96 997.88 201.61 999.44 C 238.57 1034.01 280.17 1063.61 324.96 1087.18 C 407.39 1130.72 500.82 1153.17 594.03 1151.91 C 684.65 1150.96 774.93 1127.74 854.75 1084.80 C 920.70 1049.42 979.36 1000.63 1026.44 942.47 C 1074.20 883.61 1109.79 814.96 1130.42 742.03 C 1157.97 645.52 1159.15 541.63 1133.61 444.55 C 1109.53 351.91 1061.07 265.86 994.88 196.77 C 949.16 242.26 903.61 287.93 858.03 333.56 Z" />
<path fill="#b0b0b0" opacity="1.00" d=" M 260.35 99.49 C 265.71 97.03 272.63 99.50 275.22 104.79 C 278.03 109.96 276.04 116.95 271.01 119.96 C 203.72 165.59 146.49 225.90 104.40 295.46 C 101.38 300.85 93.80 302.81 88.57 299.52 C 83.11 296.50 81.22 288.78 84.60 283.56 C 122.21 221.34 171.46 166.20 229.04 121.82 C 239.26 114.10 249.48 106.26 260.35 99.49 Z" />
</g>
<g id="#e0e0e0ff">
<path fill="#e0e0e0" opacity="1.00" d=" M 514.24 241.36 C 516.82 240.01 520.05 239.76 522.64 241.24 C 525.34 242.59 526.51 245.53 527.99 247.98 C 547.81 282.61 567.66 317.22 587.52 351.83 C 607.95 316.16 628.40 280.50 648.84 244.83 C 650.51 241.53 654.42 239.57 658.06 240.40 C 660.40 240.99 662.51 242.20 664.70 243.19 C 721.70 269.84 778.73 296.44 835.72 323.11 C 831.47 327.36 827.21 331.60 822.97 335.85 C 768.60 310.47 714.25 285.05 659.88 259.67 C 639.72 294.80 619.58 329.94 599.45 365.08 C 643.58 385.72 687.74 406.31 731.87 426.96 C 727.57 431.25 723.26 435.55 718.98 439.86 C 677.98 420.75 636.99 401.61 596.00 382.48 C 595.95 385.64 596.16 389.27 593.77 391.72 C 590.47 395.59 583.73 395.32 580.76 391.20 C 578.76 388.75 579.03 385.44 578.94 382.49 C 505.44 416.87 431.92 451.20 358.40 485.53 C 429.88 519.01 501.44 552.32 572.92 585.81 C 568.74 590.08 564.51 594.32 560.29 598.56 C 487.44 564.61 414.65 530.53 341.81 496.54 C 321.66 531.67 301.53 566.81 281.40 601.95 C 343.95 631.20 406.54 660.37 469.07 689.64 C 464.91 693.94 460.67 698.16 456.46 702.40 C 419.87 685.43 383.37 668.27 346.82 651.23 C 346.76 703.29 346.91 755.34 346.74 807.39 C 347.77 807.91 348.79 808.46 349.80 809.03 C 345.55 813.26 341.31 817.52 337.07 821.77 C 333.35 820.39 329.73 817.35 329.91 813.03 C 329.82 756.45 329.91 699.88 329.87 643.31 C 308.51 633.33 287.14 623.40 265.81 613.37 C 261.29 611.44 259.68 605.37 262.25 601.29 C 284.35 562.63 306.58 524.03 328.65 485.35 C 306.47 446.76 284.37 408.12 262.24 369.51 C 259.55 365.24 261.50 358.99 266.27 357.20 C 348.92 318.58 431.58 279.98 514.24 241.36 M 281.40 368.86 C 301.53 404.00 321.67 439.14 341.82 474.27 C 419.74 437.88 497.65 401.49 575.56 365.09 C 555.42 329.95 535.29 294.80 515.14 259.67 C 437.22 296.06 359.31 332.45 281.40 368.86 Z" />
<path fill="#e0e0e0" opacity="1.00" d=" M 848.76 342.75 C 851.87 339.71 854.88 336.56 858.03 333.56 C 874.98 341.36 891.86 349.33 908.77 357.22 C 913.32 358.97 915.39 364.85 912.97 369.08 C 890.83 407.94 868.41 446.65 846.34 485.54 C 868.59 524.06 890.60 562.72 912.74 601.30 C 915.26 605.28 913.79 611.22 909.44 613.25 C 888.04 623.35 866.56 633.29 845.13 643.33 C 845.12 699.54 845.13 755.76 845.12 811.97 C 845.43 815.72 843.29 819.44 839.76 820.85 C 757.12 859.47 674.47 898.06 591.84 936.69 C 589.17 938.14 585.90 938.17 583.23 936.72 C 508.70 901.88 434.15 867.06 359.61 832.24 C 363.75 827.86 367.71 823.05 372.68 819.61 C 441.45 851.80 510.26 883.90 579.06 916.04 C 579.13 862.35 578.95 808.66 579.01 754.96 C 578.65 750.38 582.36 745.95 587.02 745.85 C 592.00 745.41 596.40 750.04 595.93 754.98 C 595.95 808.67 595.93 862.35 595.94 916.04 C 673.28 879.93 750.60 843.79 827.94 807.67 L 828.20 807.22 C 828.18 755.24 828.18 703.26 828.19 651.27 C 772.29 677.28 716.46 703.46 660.59 729.54 C 656.61 731.80 651.11 730.30 648.99 726.22 C 628.47 690.49 608.01 654.72 587.50 618.98 C 567.02 654.70 546.56 690.44 526.06 726.15 C 524.09 729.96 519.07 731.74 515.18 729.85 C 503.00 724.25 490.89 718.52 478.75 712.85 C 482.89 708.78 486.78 704.43 491.15 700.61 L 492.24 700.40 C 499.85 704.02 507.50 707.56 515.14 711.13 C 526.57 691.21 537.98 671.29 549.40 651.37 C 553.74 644.05 557.63 636.45 562.30 629.33 C 575.70 615.72 589.30 602.31 602.77 588.77 C 604.58 586.82 606.90 585.21 607.94 582.67 L 608.36 582.63 C 608.76 582.61 609.58 582.57 609.99 582.55 C 610.90 581.80 611.88 581.17 612.93 580.65 C 680.83 548.94 748.69 517.16 816.56 485.42 C 791.80 473.81 766.99 462.30 742.22 450.70 L 741.59 450.04 C 745.93 445.88 749.72 441.01 754.66 437.56 C 780.81 449.85 807.01 462.03 833.19 474.27 C 853.33 439.14 873.47 404.00 893.59 368.86 C 877.65 361.46 861.79 353.86 845.78 346.61 C 846.26 344.99 847.62 343.92 848.76 342.75 M 599.44 605.73 C 619.59 640.86 639.70 676.02 659.90 711.13 C 737.79 674.72 815.70 638.35 893.59 601.94 C 873.45 566.81 853.33 531.67 833.18 496.54 C 755.26 532.92 677.35 569.33 599.44 605.73 Z" />
<path fill="#e0e0e0" opacity="1.00" d=" M 583.37 418.46 C 588.31 415.44 595.50 419.06 595.85 424.88 C 596.02 438.60 595.94 452.33 595.89 466.06 C 595.88 470.65 591.49 474.53 586.94 474.09 C 582.79 473.93 579.13 470.27 579.10 466.10 C 578.91 453.41 579.05 440.73 578.99 428.04 C 578.66 424.38 579.87 420.22 583.37 418.46 Z" />
<path fill="#e0e0e0" opacity="1.00" d=" M 584.39 497.57 C 588.15 496.01 592.94 497.63 594.85 501.26 C 596.11 503.29 595.93 505.74 595.95 508.02 C 595.87 520.71 596.04 533.41 595.87 546.10 C 595.62 550.49 591.39 554.05 587.03 553.69 C 582.59 553.57 578.83 549.49 579.07 545.06 C 579.05 532.04 579.06 519.02 579.06 506.00 C 578.83 502.43 580.98 498.80 584.39 497.57 Z" />
</g>
</svg>